<svg width="50" height="50" viewBox="0 0 50 50" fill="none" xmlns="http://www.w3.org/2000/svg">
<circle cx="25" cy="25" r="25" fill="#6E6E6E"/>
<path d="M36.1458 33.0138L31.9227 28.7846L28.6743 27.4407C29.7559 25.9004 30.3354 24.0628 30.3333 22.1798C30.3333 17.118 26.2212 13 21.1666 13C16.1121 13 12 17.118 12 22.1798C12 27.2415 16.1121 31.3596 21.1666 31.3596C23.0633 31.3617 24.9134 30.7714 26.4593 29.6708L27.7978 32.9151L32.0208 37.1444C32.2916 37.4157 32.6132 37.6308 32.967 37.7776C33.3209 37.9244 33.7002 38 34.0832 38C34.4662 38 34.8455 37.9245 35.1994 37.7777C35.5533 37.6309 35.8748 37.4158 36.1456 37.1446C36.4165 36.8733 36.6314 36.5513 36.7779 36.197C36.9245 35.8426 37 35.4628 37 35.0792C37 34.6956 36.9246 34.3158 36.778 33.9614C36.6314 33.607 36.4166 33.285 36.1458 33.0138ZM13.6667 22.1798C13.6667 18.0384 17.0312 14.669 21.1666 14.669C25.3021 14.669 28.6666 18.0384 28.6666 22.1798C28.6666 26.3211 25.3021 29.6905 21.1666 29.6905C17.0312 29.6905 13.6667 26.3211 13.6667 22.1798ZM34.9672 35.9643C34.7326 36.1987 34.4147 36.3303 34.0833 36.3303C33.7519 36.3303 33.434 36.1987 33.1994 35.9643L29.2113 31.9704L27.9668 28.9539L30.9791 30.2001L34.9673 34.194C35.2013 34.4289 35.3328 34.7473 35.3327 35.0791C35.3327 35.411 35.2013 35.7293 34.9672 35.9643Z" fill="white"/>
</svg>
