<svg width="49" height="49" viewBox="0 0 49 49" fill="none" xmlns="http://www.w3.org/2000/svg">
<rect width="48.7805" height="48.7805" rx="24.3902" fill="#0094C4"/>
<path d="M24 15C25.1603 15 26.2731 15.4609 27.0936 16.2814C27.9141 17.1019 28.375 18.2147 28.375 19.375C28.375 20.5353 27.9141 21.6481 27.0936 22.4686C26.2731 23.2891 25.1603 23.75 24 23.75C22.8397 23.75 21.7269 23.2891 20.9064 22.4686C20.0859 21.6481 19.625 20.5353 19.625 19.375C19.625 18.2147 20.0859 17.1019 20.9064 16.2814C21.7269 15.4609 22.8397 15 24 15ZM15.25 18.125C15.95 18.125 16.6 18.3125 17.1625 18.65C16.975 20.4375 17.5 22.2125 18.575 23.6C17.95 24.8 16.7 25.625 15.25 25.625C14.2554 25.625 13.3016 25.2299 12.5983 24.5267C11.8951 23.8234 11.5 22.8696 11.5 21.875C11.5 20.8804 11.8951 19.9266 12.5983 19.2233C13.3016 18.5201 14.2554 18.125 15.25 18.125ZM32.75 18.125C33.7446 18.125 34.6984 18.5201 35.4017 19.2233C36.1049 19.9266 36.5 20.8804 36.5 21.875C36.5 22.8696 36.1049 23.8234 35.4017 24.5267C34.6984 25.2299 33.7446 25.625 32.75 25.625C31.3 25.625 30.05 24.8 29.425 23.6C30.5148 22.193 31.0207 20.4202 30.8375 18.65C31.4 18.3125 32.05 18.125 32.75 18.125ZM15.875 30.9375C15.875 28.35 19.5125 26.25 24 26.25C28.4875 26.25 32.125 28.35 32.125 30.9375V33.125H15.875V30.9375ZM9 33.125V31.25C9 29.5125 11.3625 28.05 14.5625 27.625C13.825 28.475 13.375 29.65 13.375 30.9375V33.125H9ZM39 33.125H34.625V30.9375C34.625 29.65 34.175 28.475 33.4375 27.625C36.6375 28.05 39 29.5125 39 31.25V33.125Z" fill="white"/>
</svg>
