<svg width="34" height="34" viewBox="0 0 50 50" fill="none" xmlns="http://www.w3.org/2000/svg">
<circle cx="25" cy="25" r="25" fill="#50B747"/>
<path d="M33.1543 22.8681L34.1085 21.8777C34.8676 21.0898 35.294 20.0213 35.294 18.9071C35.294 17.7928 34.8676 16.7243 34.1085 15.9364C33.3494 15.1485 32.3198 14.7059 31.2463 14.7059C30.1728 14.7059 29.1432 15.1485 28.3841 15.9364L27.4299 16.9268L18.6576 26.0294C18.0636 26.647 17.7661 26.9557 17.5109 27.2955C17.2094 27.6964 16.9508 28.1302 16.7399 28.5893C16.5618 28.9782 16.429 29.3927 16.1634 30.2196L15.0373 33.725M33.1543 22.8681C33.1543 22.8681 31.1274 22.7442 29.3384 20.8873C27.5493 19.0315 27.4309 16.9268 27.4309 16.9268M33.1543 22.8681L24.383 31.9707C23.789 32.5872 23.4915 32.8959 23.1642 33.1609C22.7779 33.4738 22.3599 33.7422 21.9176 33.9611C21.5429 34.1459 21.1445 34.2838 20.3468 34.5594L16.9694 35.7282M16.9694 35.7282L16.1438 36.0145C15.9514 36.0815 15.7448 36.0915 15.5472 36.0432C15.3496 35.995 15.1689 35.8906 15.0254 35.7416C14.8819 35.5926 14.7812 35.4051 14.7348 35.2C14.6883 34.995 14.6979 34.7805 14.7624 34.5808L15.0383 33.7239L16.9694 35.7282Z" stroke="white" stroke-width="1.5"/>
</svg>
