<svg width="50" height="50" viewBox="0 0 50 50" fill="none" xmlns="http://www.w3.org/2000/svg">
<circle cx="25" cy="25" r="25" fill="#50B747"/>
<path d="M31.7646 13.2354H16.7646V18.2354H31.7646M33.0146 24.4854C32.6831 24.4854 32.3652 24.3537 32.1308 24.1192C31.8963 23.8848 31.7646 23.5669 31.7646 23.2354C31.7646 22.9038 31.8963 22.5859 32.1308 22.3515C32.3652 22.117 32.6831 21.9854 33.0146 21.9854C33.3462 21.9854 33.6641 22.117 33.8985 22.3515C34.133 22.5859 34.2646 22.9038 34.2646 23.2354C34.2646 23.5669 34.133 23.8848 33.8985 24.1192C33.6641 24.3537 33.3462 24.4854 33.0146 24.4854ZM29.2646 33.2354H19.2646V26.9854H29.2646M33.0146 19.4854H15.5146C14.5201 19.4854 13.5663 19.8804 12.863 20.5837C12.1597 21.287 11.7646 22.2408 11.7646 23.2354V30.7354H16.7646V35.7354H31.7646V30.7354H36.7646V23.2354C36.7646 22.2408 36.3696 21.287 35.6663 20.5837C34.963 19.8804 34.0092 19.4854 33.0146 19.4854Z" fill="white"/>
</svg>
