<svg width="340" height="301" viewBox="0 0 340 301" fill="none" xmlns="http://www.w3.org/2000/svg">
<path d="M339.589 119.139C337.696 117.619 335.843 116.053 333.896 114.611C329.343 111.238 324.596 108.175 319.578 105.515C315.808 103.515 311.961 101.7 307.99 100.15C294.681 94.9545 281.022 92.3879 267.022 92.4655C263.121 99.475 258.428 106.066 252.952 112.246C244.366 121.93 234.376 129.878 222.998 136.066C210.588 142.819 197.364 147.1 183.317 148.728C179.92 149.123 176.492 149.395 173.079 149.511C172.125 149.542 170.217 149.558 170.217 149.558H170.054C170.054 149.558 172.102 153.434 173.009 155.326C175.623 160.746 177.81 166.329 179.478 172.106C185.939 194.46 185.528 216.699 178.245 238.782C176.096 245.295 173.32 251.498 170.054 257.391C173.669 263.92 178.02 270.061 182.976 275.83C185.729 279.032 188.623 282.103 191.764 284.925C193.742 286.693 195.774 288.399 197.79 290.12C198.535 290.756 199.295 291.369 200.055 291.989C202.421 293.648 204.786 295.3 207.16 296.959C207.299 297.014 207.455 297.052 207.579 297.138C208.362 297.626 209.138 298.138 209.929 298.611C211.015 299.262 212.116 299.883 213.217 300.526C223.021 286.53 232.771 272.604 242.551 258.647C242.357 258.531 242.194 258.43 242.024 258.337C240.162 257.345 238.254 256.414 236.439 255.336C233.166 253.398 230.103 251.165 227.264 248.637C224.146 245.861 221.315 242.822 218.848 239.449C210.588 228.143 206.648 215.481 207.036 201.501C207.323 191.173 210.216 181.573 215.474 172.687C217.328 169.555 219.477 166.616 221.881 163.863C224.743 160.584 227.908 157.629 231.413 155.055C240.643 148.263 250.982 144.37 262.392 143.424C275.189 142.37 287.126 145.192 298.186 151.69C302.584 154.272 306.524 157.482 310.201 161.002C310.557 161.343 310.736 161.359 311.038 160.933C320.571 147.309 330.111 133.685 339.651 120.069C339.759 119.914 339.868 119.759 340 119.573C339.853 119.41 339.736 119.255 339.589 119.139Z" fill="white"/>
<path d="M287.041 170.377C278.315 165.251 268.977 163.755 259.095 165.849C251.952 167.368 245.755 170.726 240.488 175.805C237.836 178.363 235.602 181.248 233.787 184.435C225.883 198.345 227.489 215.272 236.982 227.353C239.751 230.881 243.04 233.85 246.848 236.2C254.318 240.821 262.454 242.752 271.203 241.86C279.719 240.992 287.165 237.634 293.471 231.842C294.766 230.656 295.891 229.276 297.101 227.988C297.217 227.864 297.349 227.756 297.473 227.647C298.427 226.29 299.373 224.933 300.327 223.576C300.746 222.778 301.165 221.987 301.584 221.188C304.089 216.412 305.524 211.317 305.811 205.936C306.385 195.205 303.119 185.776 296.015 177.712C293.44 174.797 290.423 172.362 287.041 170.377ZM278.656 211.457C274.259 217.73 265.688 219.25 259.406 214.861C253.108 210.465 251.58 201.865 255.993 195.577C260.391 189.304 268.961 187.792 275.244 192.173C281.542 196.57 283.07 205.169 278.656 211.457Z" fill="white"/>
<path d="M103.281 227.368C112.775 215.287 114.38 198.353 106.477 184.45C104.662 181.256 102.428 178.379 99.7754 175.82C94.509 170.741 88.3118 167.384 81.1683 165.864C71.287 163.763 61.9563 165.267 53.2228 170.392C49.8489 172.377 46.824 174.804 44.2411 177.743C37.1442 185.807 33.8711 195.236 34.4451 205.967C34.7321 211.348 36.167 216.435 38.6722 221.219C39.091 222.018 39.5099 222.809 39.9287 223.607C40.8827 224.964 41.829 226.321 42.783 227.678C42.9071 227.795 43.0467 227.895 43.1553 228.019C44.3652 229.307 45.4899 230.687 46.7852 231.873C53.0987 237.658 60.5369 241.023 69.0532 241.891C77.8022 242.783 85.9384 240.852 93.4076 236.231C97.2236 233.858 100.504 230.896 103.281 227.368ZM80.8581 214.861C74.5756 219.242 66.005 217.73 61.6072 211.457C57.194 205.169 58.7142 196.57 65.02 192.173C71.3025 187.792 79.8731 189.312 84.2708 195.577C88.6841 201.865 87.1561 210.472 80.8581 214.861Z" fill="white"/>
<path d="M160.522 172.098C162.19 166.321 164.385 160.739 166.991 155.319C167.898 153.427 170.054 149.558 170.054 149.558H169.922C169.922 149.558 167.875 149.542 166.921 149.503C163.5 149.387 160.08 149.108 156.683 148.72C142.636 147.092 129.42 142.819 117.002 136.058C105.631 129.87 95.6337 121.923 87.0476 112.238C81.5718 106.058 76.6311 99.4595 72.7297 92.4577C58.7376 92.3879 45.3194 94.9467 32.0098 100.142C28.0386 101.693 24.1915 103.507 20.422 105.508C15.4115 108.167 10.657 111.238 6.10412 114.603C4.15731 116.045 2.30359 117.611 0.411079 119.131C0.263712 119.247 0.155124 119.403 0 119.573C0.124099 119.751 0.232685 119.907 0.349028 120.069C9.88913 133.685 19.4292 147.309 28.9616 160.932C29.2641 161.359 29.4425 161.336 29.7993 161.002C33.4834 157.482 37.4158 154.272 41.8136 151.69C52.8739 145.192 64.8107 142.37 77.6084 143.424C89.0255 144.362 99.3567 148.255 108.587 155.055C112.092 157.637 115.257 160.584 118.119 163.863C120.523 166.616 122.672 169.547 124.526 172.687C129.784 181.566 132.669 191.173 132.964 201.501C133.36 215.481 129.412 228.143 121.152 239.449C118.685 242.822 115.854 245.869 112.736 248.637C109.897 251.165 106.826 253.398 103.561 255.336C101.746 256.414 99.8376 257.337 97.9761 258.337C97.8055 258.43 97.6503 258.531 97.4487 258.647C107.229 272.604 116.979 286.53 126.783 300.526C127.884 299.883 128.985 299.262 130.071 298.611C130.862 298.138 131.638 297.626 132.421 297.138C132.545 297.06 132.701 297.021 132.84 296.959C135.206 295.3 137.571 293.649 139.945 291.989C140.697 291.369 141.465 290.756 142.21 290.12C144.226 288.399 146.258 286.693 148.236 284.925C151.385 282.103 154.278 279.032 157.024 275.83C161.972 270.061 166.44 263.912 170.054 257.391C166.789 251.498 163.904 245.295 161.755 238.782C154.472 216.691 154.061 194.453 160.522 172.098Z" fill="white"/>
<path d="M166.277 76.9421C169.93 77.291 173.576 77.1127 177.198 76.4071C184.38 75.0114 190.686 71.8633 196.03 66.8853C203.421 59.9998 207.54 51.4937 208.346 41.4059C208.657 37.5057 208.401 33.6365 207.478 29.8371C204.942 19.4003 199.086 11.313 189.964 5.62934C185.388 2.7759 180.401 1.03127 175.041 0.341169C174.149 0.224861 173.258 0.116309 172.366 0C170.706 0 169.054 0 167.394 0C167.231 0.0387696 167.06 0.0852902 166.897 0.108552C165.152 0.356677 163.376 0.488493 161.654 0.868435C153.293 2.71387 146.274 6.88547 140.674 13.36C134.919 20.0128 131.84 27.7823 131.343 36.552C131.087 41.0182 131.638 45.4147 132.941 49.7026C137.401 64.404 150.346 75.4301 166.277 76.9421ZM169.876 24.704C177.562 24.704 183.736 30.8761 183.721 38.5602C183.705 46.2133 177.547 52.3699 169.891 52.3699C162.213 52.3777 156.031 46.1901 156.047 38.5137C156.062 30.8528 162.213 24.7117 169.876 24.704Z" fill="white"/>
<path d="M280.906 35.0089C280.844 32.5897 280.619 30.1782 280.502 27.7357C280.487 27.5496 280.425 27.3713 280.378 27.1464C280.153 27.1464 279.959 27.1464 279.773 27.1464C263.144 27.1464 246.507 27.1542 229.878 27.1387C229.358 27.1309 229.273 27.3015 229.343 27.7822C230.11 32.8145 230.483 37.8778 230.079 42.9644C229.056 55.7506 224.526 67.1411 216.32 77.0196C208.998 85.8281 199.885 92.0622 189.018 95.722C184.892 97.11 180.657 98.0094 176.329 98.4747C172.691 98.8624 169.054 98.9399 165.424 98.6608C155.131 97.8776 145.599 94.7296 136.974 89.0459C125.293 81.354 117.173 70.8552 112.651 57.6116C111.301 53.6571 110.425 49.594 109.944 45.4457C109.502 41.6695 109.424 37.8778 109.719 34.0862C109.882 31.9771 110.208 29.8836 110.464 27.79C110.487 27.6039 110.495 27.4101 110.51 27.1852C93.462 27.1852 76.4527 27.1852 59.3658 27.1852C59.2572 28.4568 59.1409 29.713 59.0478 30.9769C58.9858 31.8996 58.9625 32.8223 58.9082 33.745C58.9005 33.8923 58.8384 34.0397 58.8074 34.187C58.8074 37.0792 58.8074 39.9637 58.8074 42.8559C58.8849 43.8329 58.947 44.8099 59.0401 45.7791C59.3038 48.4232 59.5287 51.0673 59.8467 53.6958C60.3509 57.8907 61.2118 62.0158 62.2589 66.1099C64.6478 75.4146 68.1303 84.2075 72.7297 92.4577C74.1413 92.4654 106.143 92.7833 127.644 106.919C156.59 123.248 169.62 148.697 170.054 149.565C169.953 149.565 170.155 149.565 170.054 149.565C172.435 145.285 175.266 141.168 178.222 137.244C180.277 134.515 182.464 131.871 184.737 129.312C194.129 118.743 205.213 110.369 217.871 104.081C229.467 98.3196 241.714 94.6908 254.573 93.2175C258.754 92.7368 262.904 92.4887 267.022 92.4654C271.854 83.781 275.484 74.4686 277.904 64.528C278.912 60.3875 279.634 56.1926 280.153 51.959C280.844 46.3219 281.061 40.6693 280.906 35.0089Z" fill="white"/>
</svg>
