<svg width="340" height="406" viewBox="0 0 340 406" fill="none" xmlns="http://www.w3.org/2000/svg">
<path d="M339.589 119.139C337.696 117.619 335.843 116.053 333.896 114.611C329.343 111.238 324.596 108.175 319.578 105.515C315.808 103.515 311.961 101.7 307.99 100.15C294.681 94.9545 281.022 92.3879 267.022 92.4655C263.121 99.475 258.428 106.066 252.952 112.246C244.366 121.93 234.376 129.878 222.998 136.066C210.588 142.819 197.364 147.1 183.317 148.728C179.92 149.123 176.492 149.395 173.079 149.511C172.125 149.542 170.217 149.558 170.217 149.558H170.054C170.054 149.558 172.102 153.434 173.009 155.326C175.623 160.746 177.81 166.329 179.478 172.106C185.939 194.46 185.528 216.699 178.245 238.782C176.096 245.295 173.32 251.498 170.054 257.391C173.669 263.92 178.02 270.061 182.976 275.83C185.729 279.032 188.623 282.103 191.764 284.925C193.742 286.693 195.774 288.399 197.79 290.12C198.535 290.756 199.295 291.369 200.055 291.989C202.421 293.648 204.786 295.3 207.16 296.959C207.299 297.014 207.455 297.052 207.579 297.138C208.362 297.626 209.138 298.138 209.929 298.611C211.015 299.262 212.116 299.883 213.217 300.526C223.021 286.53 232.771 272.604 242.551 258.647C242.357 258.531 242.194 258.43 242.024 258.337C240.162 257.345 238.254 256.414 236.439 255.336C233.166 253.398 230.103 251.165 227.264 248.637C224.146 245.861 221.315 242.822 218.848 239.449C210.588 228.143 206.648 215.481 207.036 201.501C207.323 191.173 210.216 181.573 215.474 172.687C217.328 169.555 219.477 166.616 221.881 163.863C224.743 160.584 227.908 157.629 231.413 155.055C240.643 148.263 250.982 144.37 262.392 143.424C275.189 142.37 287.126 145.192 298.186 151.69C302.584 154.272 306.524 157.482 310.201 161.002C310.557 161.343 310.736 161.359 311.038 160.933C320.571 147.309 330.111 133.685 339.651 120.069C339.759 119.914 339.868 119.759 340 119.573C339.853 119.41 339.736 119.255 339.589 119.139Z" fill="#FFD100"/>
<path d="M287.041 170.377C278.315 165.251 268.976 163.755 259.095 165.849C251.952 167.368 245.754 170.726 240.488 175.805C237.835 178.363 235.602 181.248 233.787 184.435C225.883 198.345 227.489 215.272 236.982 227.353C239.751 230.881 243.04 233.85 246.848 236.2C254.317 240.821 262.453 242.752 271.202 241.86C279.719 240.992 287.165 237.634 293.47 231.842C294.766 230.656 295.89 229.276 297.1 227.988C297.217 227.864 297.349 227.756 297.473 227.647C298.427 226.29 299.373 224.933 300.327 223.576C300.746 222.778 301.165 221.987 301.583 221.188C304.089 216.412 305.524 211.317 305.811 205.936C306.385 195.205 303.119 185.776 296.014 177.712C293.439 174.797 290.422 172.362 287.041 170.377ZM278.656 211.457C274.258 217.73 265.688 219.25 259.405 214.861C253.107 210.465 251.579 201.865 255.993 195.577C260.39 189.304 268.961 187.792 275.243 192.173C281.541 196.57 283.069 205.169 278.656 211.457Z" fill="#FFD100"/>
<path d="M103.281 227.368C112.775 215.287 114.38 198.353 106.477 184.45C104.662 181.256 102.428 178.379 99.7754 175.82C94.509 170.741 88.3118 167.384 81.1683 165.864C71.287 163.763 61.9563 165.267 53.2228 170.392C49.8489 172.377 46.824 174.804 44.2411 177.743C37.1442 185.807 33.8711 195.236 34.4451 205.967C34.7321 211.348 36.167 216.435 38.6722 221.219C39.091 222.018 39.5099 222.809 39.9287 223.607C40.8827 224.964 41.829 226.321 42.783 227.678C42.9071 227.795 43.0467 227.895 43.1553 228.019C44.3652 229.307 45.4899 230.687 46.7852 231.873C53.0987 237.658 60.5369 241.023 69.0532 241.891C77.8021 242.783 85.9384 240.852 93.4076 236.231C97.2236 233.858 100.504 230.896 103.281 227.368ZM80.8581 214.861C74.5756 219.242 66.005 217.73 61.6072 211.457C57.194 205.169 58.7142 196.57 65.02 192.173C71.3025 187.792 79.8731 189.312 84.2708 195.577C88.6841 201.865 87.1561 210.472 80.8581 214.861Z" fill="#00B1EB"/>
<path d="M160.522 172.098C162.19 166.321 164.385 160.739 166.991 155.319C167.898 153.427 170.054 149.558 170.054 149.558H169.922C169.922 149.558 167.875 149.542 166.921 149.503C163.5 149.387 160.08 149.108 156.683 148.72C142.636 147.092 129.42 142.819 117.002 136.058C105.631 129.87 95.6337 121.923 87.0476 112.238C81.5718 106.058 76.6311 99.4595 72.7297 92.4577C58.7376 92.3879 45.3194 94.9467 32.0098 100.142C28.0386 101.693 24.1915 103.507 20.422 105.508C15.4115 108.167 10.657 111.238 6.10412 114.603C4.15731 116.045 2.30359 117.611 0.411079 119.131C0.263712 119.247 0.155124 119.403 0 119.573C0.124099 119.751 0.232685 119.907 0.349028 120.069C9.88913 133.685 19.4292 147.309 28.9616 160.932C29.2641 161.359 29.4425 161.336 29.7993 161.002C33.4834 157.482 37.4158 154.272 41.8136 151.69C52.8739 145.192 64.8107 142.37 77.6084 143.424C89.0255 144.362 99.3567 148.255 108.587 155.055C112.092 157.637 115.257 160.584 118.119 163.863C120.523 166.616 122.672 169.547 124.526 172.687C129.784 181.566 132.669 191.173 132.964 201.501C133.36 215.481 129.412 228.143 121.152 239.449C118.685 242.822 115.854 245.869 112.736 248.637C109.897 251.165 106.826 253.398 103.561 255.336C101.746 256.414 99.8376 257.337 97.9761 258.337C97.8055 258.43 97.6503 258.531 97.4487 258.647C107.229 272.604 116.979 286.53 126.783 300.526C127.884 299.883 128.985 299.262 130.071 298.611C130.862 298.138 131.638 297.626 132.421 297.138C132.545 297.06 132.701 297.021 132.84 296.959C135.206 295.3 137.571 293.649 139.945 291.989C140.697 291.369 141.465 290.756 142.21 290.12C144.226 288.399 146.258 286.693 148.236 284.925C151.385 282.103 154.278 279.032 157.024 275.83C161.972 270.061 166.44 263.912 170.054 257.391C166.789 251.498 163.904 245.295 161.755 238.782C154.472 216.691 154.061 194.453 160.522 172.098Z" fill="#00B1EB"/>
<path d="M166.277 76.9421C169.93 77.291 173.575 77.1127 177.197 76.4071C184.38 75.0114 190.685 71.8633 196.029 66.8853C203.421 59.9998 207.54 51.4937 208.346 41.4059C208.656 37.5057 208.401 33.6365 207.478 29.8371C204.941 19.4003 199.085 11.313 189.964 5.62934C185.388 2.7759 180.401 1.03127 175.041 0.341169C174.149 0.224861 173.257 0.116309 172.365 0C170.705 0 169.053 0 167.394 0C167.231 0.0387696 167.06 0.0852902 166.897 0.108552C165.152 0.356677 163.376 0.488493 161.654 0.868435C153.293 2.71387 146.274 6.88547 140.674 13.36C134.918 20.0128 131.839 27.7823 131.343 36.552C131.087 41.0182 131.638 45.4147 132.941 49.7026C137.4 64.404 150.346 75.4301 166.277 76.9421ZM169.876 24.704C177.562 24.704 183.736 30.8761 183.72 38.5602C183.705 46.2133 177.546 52.3699 169.891 52.3699C162.212 52.3777 156.031 46.1901 156.046 38.5137C156.062 30.8528 162.212 24.7117 169.876 24.704Z" fill="#2274AC"/>
<path d="M280.905 35.0089C280.843 32.5897 280.618 30.1782 280.502 27.7357C280.487 27.5496 280.425 27.3713 280.378 27.1464C280.153 27.1464 279.959 27.1464 279.773 27.1464C263.144 27.1464 246.507 27.1542 229.877 27.1387C229.358 27.1309 229.273 27.3015 229.342 27.7822C230.11 32.8145 230.482 37.8778 230.079 42.9644C229.055 55.7506 224.526 67.1411 216.32 77.0196C208.998 85.8281 199.884 92.0622 189.018 95.722C184.892 97.11 180.657 98.0094 176.329 98.4747C172.691 98.8624 169.054 98.9399 165.424 98.6608C155.131 97.8776 145.599 94.7296 136.974 89.0459C125.293 81.3541 117.172 70.8552 112.651 57.6116C111.301 53.6571 110.425 49.594 109.944 45.4457C109.502 41.6695 109.424 37.8778 109.719 34.0862C109.882 31.9771 110.207 29.8836 110.463 27.79C110.487 27.6039 110.494 27.4101 110.51 27.1852C93.4618 27.1852 76.4525 27.1852 59.3656 27.1852C59.257 28.4568 59.1406 29.713 59.0476 30.9769C58.9855 31.8996 58.9623 32.8223 58.908 33.745C58.9002 33.8923 58.8382 34.0397 58.8071 34.187C58.8071 37.0792 58.8071 39.9637 58.8071 42.8559C58.8847 43.8329 58.9467 44.8099 59.0398 45.7791C59.3035 48.4232 59.5285 51.0673 59.8465 53.6958C60.3506 57.8907 61.2115 62.0158 62.2586 66.1099C64.6475 75.4145 68.1301 84.2075 72.7295 92.4577C74.1411 92.4654 106.143 92.7833 127.643 106.919C156.589 123.248 169.62 148.697 170.054 149.565C170.155 149.565 169.953 149.565 170.054 149.565C172.435 145.285 175.266 141.168 178.221 137.244C180.277 134.515 182.464 131.871 184.737 129.312C194.129 118.743 205.213 110.369 217.871 104.081C229.466 98.3196 241.713 94.6908 254.573 93.2175C258.754 92.7368 262.903 92.4887 267.022 92.4654C271.854 83.781 275.484 74.4686 277.904 64.5281C278.912 60.3875 279.633 56.1926 280.153 51.959C280.843 46.3219 281.061 40.6693 280.905 35.0089Z" fill="#2274AC"/>
<path d="M17.9151 308.971L34.0967 308.971L47.8234 342.382L48.457 342.382L62.1836 308.971L78.3653 308.971L78.3653 362.935L65.6417 362.935L65.6417 329.787L65.1929 329.787L52.2054 362.592L44.075 362.592L31.0874 329.602L30.6387 329.602L30.6387 362.935L17.9151 362.935L17.9151 308.971ZM94.2288 363.62C91.6418 363.62 89.3453 363.19 87.3391 362.329C85.3504 361.451 83.7754 360.133 82.6139 358.376C81.47 356.602 80.8981 354.38 80.8981 351.71C80.8981 349.461 81.294 347.564 82.086 346.018C82.8779 344.472 83.969 343.216 85.3592 342.25C86.7495 341.284 88.351 340.555 90.1636 340.063C91.9762 339.554 93.912 339.211 95.971 339.036C98.2764 338.825 100.133 338.605 101.541 338.377C102.949 338.131 103.969 337.788 104.603 337.349C105.254 336.893 105.58 336.251 105.58 335.426L105.58 335.294C105.58 333.941 105.113 332.896 104.181 332.158C103.248 331.421 101.99 331.052 100.406 331.052C98.6988 331.052 97.3261 331.421 96.2878 332.158C95.2495 332.896 94.5896 333.915 94.308 335.215L82.4027 334.793C82.7547 332.334 83.661 330.138 85.1217 328.206C86.5999 326.256 88.6237 324.728 91.1931 323.621C93.78 322.497 96.8861 321.935 100.511 321.935C103.098 321.935 105.483 322.242 107.665 322.857C109.847 323.454 111.748 324.332 113.367 325.492C114.986 326.634 116.235 328.039 117.115 329.708C118.013 331.377 118.462 333.283 118.462 335.426L118.462 362.935L106.319 362.935L106.319 357.296L106.002 357.296C105.281 358.666 104.357 359.826 103.23 360.774C102.122 361.723 100.811 362.434 99.2971 362.909C97.8012 363.383 96.1118 363.62 94.2288 363.62ZM98.2148 355.188C99.6051 355.188 100.855 354.907 101.963 354.345C103.09 353.783 103.987 353.01 104.656 352.026C105.325 351.025 105.659 349.865 105.659 348.548L105.659 344.701C105.289 344.894 104.841 345.07 104.313 345.228C103.802 345.386 103.239 345.535 102.623 345.676C102.007 345.816 101.374 345.939 100.723 346.045C100.071 346.15 99.4467 346.247 98.8483 346.335C97.6341 346.528 96.5958 346.826 95.7334 347.23C94.8887 347.634 94.2376 348.161 93.78 348.811C93.3401 349.444 93.1201 350.199 93.1201 351.077C93.1201 352.413 93.5952 353.431 94.5456 354.134C95.5135 354.837 96.7365 355.188 98.2148 355.188ZM135.546 339.852L135.546 362.935L122.638 362.935L122.638 322.462L134.913 322.462L134.913 329.892L135.361 329.892C136.259 327.415 137.79 325.474 139.954 324.069C142.119 322.646 144.697 321.935 147.689 321.935C150.54 321.935 153.012 322.576 155.107 323.858C157.218 325.123 158.855 326.897 160.016 329.181C161.196 331.447 161.776 334.099 161.759 337.138L161.759 362.935L148.85 362.935L148.85 339.668C148.868 337.42 148.296 335.663 147.135 334.398C145.991 333.133 144.398 332.501 142.357 332.501C141.002 332.501 139.805 332.8 138.767 333.397C137.746 333.976 136.954 334.811 136.391 335.9C135.845 336.989 135.564 338.307 135.546 339.852ZM184.987 363.699C180.746 363.699 177.086 362.865 174.006 361.196C170.944 359.509 168.586 357.112 166.931 354.002C165.295 350.875 164.476 347.16 164.476 342.856C164.476 338.676 165.303 335.022 166.958 331.895C168.612 328.75 170.944 326.309 173.953 324.57C176.962 322.813 180.508 321.935 184.591 321.935C187.477 321.935 190.117 322.383 192.51 323.278C194.904 324.174 196.972 325.501 198.714 327.257C200.456 329.014 201.811 331.183 202.779 333.766C203.747 336.33 204.231 339.273 204.231 342.593L204.231 345.808L168.99 345.808L168.99 338.324L192.22 338.324C192.202 336.954 191.877 335.733 191.243 334.662C190.61 333.59 189.739 332.756 188.63 332.158C187.539 331.544 186.281 331.236 184.855 331.236C183.412 331.236 182.119 331.561 180.975 332.211C179.831 332.843 178.925 333.713 178.256 334.82C177.587 335.909 177.235 337.147 177.2 338.535L177.2 346.15C177.2 347.801 177.525 349.251 178.177 350.498C178.828 351.727 179.752 352.685 180.948 353.37C182.145 354.055 183.57 354.398 185.225 354.398C186.369 354.398 187.407 354.239 188.34 353.923C189.272 353.607 190.073 353.142 190.742 352.527C191.411 351.912 191.912 351.157 192.246 350.261L204.099 350.603C203.606 353.256 202.524 355.566 200.852 357.533C199.198 359.483 197.024 361.003 194.332 362.092C191.639 363.163 188.524 363.699 184.987 363.699ZM218.537 363.62C215.95 363.62 213.653 363.19 211.647 362.329C209.659 361.451 208.084 360.133 206.922 358.376C205.778 356.602 205.206 354.38 205.206 351.71C205.206 349.461 205.602 347.564 206.394 346.018C207.186 344.472 208.277 343.216 209.667 342.25C211.058 341.284 212.659 340.555 214.472 340.063C216.284 339.554 218.22 339.211 220.279 339.036C222.585 338.825 224.441 338.605 225.849 338.377C227.257 338.131 228.278 337.788 228.911 337.349C229.562 336.893 229.888 336.251 229.888 335.426L229.888 335.294C229.888 333.941 229.422 332.896 228.489 332.158C227.556 331.421 226.298 331.052 224.714 331.052C223.007 331.052 221.634 331.421 220.596 332.158C219.558 332.896 218.898 333.915 218.616 335.215L206.711 334.793C207.063 332.334 207.969 330.138 209.43 328.206C210.908 326.256 212.932 324.728 215.501 323.621C218.088 322.497 221.194 321.935 224.82 321.935C227.407 321.935 229.791 322.242 231.973 322.857C234.155 323.454 236.056 324.332 237.675 325.492C239.294 326.634 240.544 328.039 241.424 329.708C242.321 331.377 242.77 333.283 242.77 335.426L242.77 362.935L230.627 362.935L230.627 357.296L230.31 357.296C229.589 358.666 228.665 359.826 227.538 360.774C226.43 361.723 225.119 362.434 223.605 362.909C222.109 363.383 220.42 363.62 218.537 363.62ZM222.523 355.188C223.913 355.188 225.163 354.907 226.271 354.345C227.398 353.783 228.295 353.01 228.964 352.026C229.633 351.025 229.967 349.865 229.967 348.548L229.967 344.701C229.597 344.894 229.149 345.07 228.621 345.228C228.11 345.386 227.547 345.535 226.931 345.676C226.315 345.816 225.682 345.939 225.031 346.045C224.38 346.15 223.755 346.247 223.157 346.335C221.942 346.528 220.904 346.826 220.042 347.23C219.197 347.634 218.546 348.161 218.088 348.811C217.648 349.444 217.428 350.199 217.428 351.077C217.428 352.413 217.903 353.431 218.854 354.134C219.822 354.837 221.045 355.188 222.523 355.188ZM282.345 334.82L270.492 335.136C270.369 334.293 270.035 333.546 269.489 332.896C268.944 332.229 268.231 331.71 267.351 331.341C266.489 330.955 265.486 330.762 264.342 330.762C262.846 330.762 261.57 331.06 260.514 331.658C259.476 332.255 258.966 333.063 258.983 334.082C258.966 334.872 259.282 335.557 259.933 336.137C260.602 336.717 261.79 337.182 263.497 337.534L271.311 339.009C275.358 339.782 278.368 341.065 280.339 342.856C282.327 344.648 283.33 347.02 283.348 349.971C283.33 352.746 282.503 355.162 280.867 357.217C279.248 359.272 277.03 360.871 274.214 362.013C271.399 363.137 268.178 363.699 264.553 363.699C258.763 363.699 254.196 362.513 250.853 360.142C247.527 357.753 245.626 354.556 245.151 350.55L257.901 350.234C258.182 351.71 258.913 352.834 260.092 353.607C261.271 354.38 262.776 354.766 264.606 354.766C266.26 354.766 267.606 354.459 268.645 353.844C269.683 353.229 270.211 352.413 270.228 351.394C270.211 350.48 269.806 349.751 269.014 349.207C268.222 348.645 266.982 348.205 265.292 347.889L258.218 346.545C254.152 345.808 251.125 344.446 249.137 342.461C247.148 340.459 246.163 337.911 246.18 334.82C246.163 332.114 246.884 329.804 248.345 327.89C249.806 325.957 251.882 324.482 254.575 323.463C257.267 322.444 260.444 321.935 264.104 321.935C269.595 321.935 273.924 323.085 277.092 325.386C280.259 327.67 282.01 330.814 282.345 334.82ZM293.879 378.112C292.331 378.112 290.87 377.989 289.497 377.743C288.125 377.515 286.945 377.208 285.96 376.821L288.811 367.467C290.078 367.889 291.222 368.135 292.243 368.205C293.281 368.275 294.17 368.108 294.909 367.704C295.665 367.318 296.246 366.624 296.651 365.623L297.152 364.41L282.739 322.462L296.255 322.462L303.725 351.341L304.148 351.341L311.724 322.462L325.319 322.462L310.034 366.808C309.295 369.022 308.248 370.972 306.893 372.658C305.556 374.362 303.822 375.697 301.693 376.663C299.581 377.629 296.977 378.112 293.879 378.112Z" fill="#007CC4"/>
</svg>
